<?xml version="1.0" encoding="utf-8"?>
<!-- Generator: Adobe Illustrator 16.0.0, SVG Export Plug-In . SVG Version: 6.00 Build 0)  -->
<!DOCTYPE svg PUBLIC "-//W3C//DTD SVG 1.1//EN" "http://www.w3.org/Graphics/SVG/1.1/DTD/svg11.dtd">
<svg version="1.1" id="Layer_1" xmlns="http://www.w3.org/2000/svg" xmlns:xlink="http://www.w3.org/1999/xlink" x="0px" y="0px"
	 width="300px" height="100px" viewBox="0 0 300 100" enable-background="new 0 0 300 100" xml:space="preserve">
<g>
	<g>
		<g opacity="0.8">
			<path fill="#FFFFFF" d="M61.171,36.975c-0.882,0-1.777-0.176-2.637-0.549l-15.186-6.588c-3.361-1.458-4.904-5.365-3.446-8.726
				c1.458-3.361,5.366-4.903,8.726-3.446l15.187,6.588c3.361,1.458,4.903,5.365,3.445,8.726
				C66.174,35.48,63.733,36.975,61.171,36.975z"/>
		</g>
		<g opacity="0.8">
			<path fill="#FFFFFF" d="M52.804,52.165c-0.881,0-1.777-0.177-2.637-0.55L13.504,35.71c-3.361-1.458-4.904-5.365-3.445-8.726
				c1.458-3.361,5.364-4.904,8.725-3.446l36.664,15.906c3.361,1.458,4.903,5.365,3.445,8.726
				C57.808,50.671,55.367,52.165,52.804,52.165z"/>
		</g>
		<g opacity="0.8">
			<path fill="#FFFFFF" d="M44.438,67.355c-0.881,0-1.777-0.177-2.637-0.55l-21.124-9.164c-3.361-1.459-4.904-5.365-3.445-8.726
				c1.458-3.361,5.365-4.903,8.725-3.445l21.124,9.165c3.361,1.458,4.903,5.364,3.445,8.726
				C49.442,65.86,47.001,67.355,44.438,67.355z"/>
		</g>
		<g opacity="0.8">
			<path fill="#FFFFFF" d="M36.072,82.545c-0.881,0-1.777-0.177-2.637-0.55l-5.584-2.422c-3.361-1.458-4.903-5.365-3.445-8.726
				c1.458-3.361,5.364-4.903,8.726-3.446l5.584,2.423c3.36,1.458,4.903,5.365,3.445,8.726
				C41.076,81.051,38.635,82.545,36.072,82.545z"/>
		</g>
	</g>
	<g>
		<path fill="#FFFFFF" d="M80.393,45.273c0-0.792,0.396-1.189,1.189-1.189h4.319V33.199c0-0.705,0.337-1.175,1.013-1.41l7.183-2.82
			c0.235-0.059,0.396-0.088,0.485-0.088c0.293,0,0.521,0.104,0.683,0.309c0.161,0.206,0.242,0.484,0.242,0.837v14.058h9.122
			c0.793,0,1.19,0.396,1.19,1.189v6.743c0,0.793-0.396,1.189-1.19,1.189h-9.122v27.938c0,0.794-0.382,1.19-1.146,1.19h-7.227
			c-0.382,0-0.676-0.104-0.881-0.309c-0.206-0.206-0.309-0.5-0.309-0.882V53.205h-4.363c-0.793,0-1.189-0.396-1.189-1.189V45.273z"
			/>
		<path fill="#FFFFFF" d="M172.064,44.304c0.176,0.177,0.265,0.396,0.265,0.662c0,0.147-0.044,0.338-0.132,0.573l-15.468,35.693
			c-0.147,0.324-0.368,0.581-0.661,0.771c-0.294,0.191-0.632,0.286-1.014,0.286h-4.715c-0.353,0-0.683-0.095-0.992-0.286
			c-0.309-0.19-0.536-0.447-0.683-0.771l-7.315-16.216l-6.786,16.216c-0.118,0.294-0.346,0.544-0.683,0.749
			c-0.338,0.206-0.683,0.309-1.036,0.309h-5.2c-0.353,0-0.698-0.103-1.036-0.309c-0.338-0.205-0.566-0.455-0.683-0.749
			l-15.203-35.693c-0.088-0.235-0.132-0.426-0.132-0.573c0-0.294,0.095-0.521,0.286-0.684c0.191-0.161,0.434-0.242,0.727-0.242
			h7.712c0.382,0,0.72,0.103,1.013,0.309c0.293,0.206,0.5,0.47,0.617,0.793l9.298,26.264l9.563-26.264
			c0.117-0.323,0.322-0.587,0.617-0.793c0.293-0.206,0.631-0.309,1.014-0.309h7.183c0.293,0,0.529,0.081,0.705,0.242
			c0.176,0.162,0.265,0.375,0.265,0.639c0,0.176-0.044,0.382-0.132,0.617l-3.922,9.386l6.654,16.217l9.827-26.043
			c0.293-0.705,0.764-1.058,1.41-1.058h7.976C171.668,44.04,171.889,44.128,172.064,44.304z"/>
		<path fill="#FFFFFF" d="M180.173,31.701c-0.91-0.528-1.638-1.24-2.181-2.137c-0.544-0.896-0.816-1.873-0.816-2.931
			s0.272-2.042,0.816-2.953c0.543-0.91,1.271-1.63,2.181-2.159c0.911-0.529,1.895-0.793,2.953-0.793
			c1.058,0,2.041,0.264,2.952,0.793c0.91,0.529,1.63,1.25,2.159,2.159c0.528,0.911,0.793,1.895,0.793,2.953
			s-0.265,2.035-0.793,2.931c-0.529,0.896-1.249,1.608-2.159,2.137c-0.911,0.529-1.895,0.793-2.952,0.793
			C182.067,32.494,181.084,32.23,180.173,31.701z M187.555,44.348c0.22,0.206,0.33,0.5,0.33,0.881V81.1
			c0,0.383-0.11,0.676-0.33,0.881c-0.221,0.206-0.522,0.309-0.904,0.309h-7.139c-0.793,0-1.189-0.396-1.189-1.189V45.229
			c0-0.793,0.396-1.189,1.189-1.189h7.139C187.032,44.04,187.334,44.143,187.555,44.348z"/>
		<path fill="#FFFFFF" d="M207.194,52.479c-0.837,0.544-1.256,1.285-1.256,2.226c0,0.616,0.183,1.139,0.551,1.564
			c0.367,0.426,1.05,0.837,2.05,1.233c0.998,0.396,2.481,0.845,4.45,1.344c3.085,0.765,5.633,1.683,7.646,2.755
			c2.012,1.072,3.555,2.445,4.627,4.12s1.608,3.761,1.608,6.257c0,3.731-1.396,6.581-4.187,8.55
			c-2.791,1.968-6.596,2.952-11.413,2.952c-2.968,0-5.847-0.463-8.637-1.389c-2.792-0.926-5.172-1.945-7.139-3.063
			c-0.589-0.323-0.882-0.733-0.882-1.233c0-0.323,0.103-0.632,0.309-0.926l2.82-4.979c0.323-0.528,0.733-0.793,1.233-0.793
			c0.294,0,0.617,0.088,0.97,0.265c4.143,2.145,7.917,3.217,11.325,3.217c2.115,0,3.716-0.235,4.804-0.705
			c1.086-0.47,1.63-1.248,1.63-2.336c0-1.058-0.559-1.917-1.675-2.577c-1.116-0.662-2.894-1.301-5.332-1.918
			c-3.172-0.793-5.743-1.688-7.711-2.688c-1.969-0.998-3.475-2.32-4.517-3.967c-1.044-1.645-1.565-3.745-1.565-6.301
			c0-1.998,0.544-3.856,1.631-5.575c1.087-1.718,2.673-3.099,4.76-4.142c2.085-1.042,4.567-1.565,7.447-1.565
			c2.526,0,5.045,0.382,7.557,1.146c2.512,0.764,4.634,1.66,6.368,2.688c0.646,0.353,0.97,0.793,0.97,1.323
			c0,0.293-0.104,0.602-0.309,0.925l-2.864,4.803c-0.353,0.588-0.779,0.881-1.278,0.881c-0.088,0-0.25-0.029-0.484-0.088
			c-1.44-0.764-3.057-1.425-4.848-1.983c-1.793-0.558-3.496-0.837-5.111-0.837C209.214,51.663,208.031,51.935,207.194,52.479z"/>
		<path fill="#FFFFFF" d="M231.6,45.273c0-0.792,0.396-1.189,1.189-1.189h4.318V33.199c0-0.705,0.338-1.175,1.014-1.41l7.183-2.82
			c0.235-0.059,0.397-0.088,0.485-0.088c0.293,0,0.521,0.104,0.683,0.309c0.161,0.206,0.242,0.484,0.242,0.837v14.058h9.122
			c0.793,0,1.189,0.396,1.189,1.189v6.743c0,0.793-0.396,1.189-1.189,1.189h-9.122v27.938c0,0.794-0.382,1.19-1.146,1.19h-7.227
			c-0.382,0-0.677-0.104-0.882-0.309c-0.206-0.206-0.309-0.5-0.309-0.882V53.205h-4.362c-0.793,0-1.189-0.396-1.189-1.189V45.273z"
			/>
		<path fill="#FFFFFF" d="M294.159,47.256c0,0.265-0.088,0.529-0.265,0.793l-3.305,5.111c-0.206,0.382-0.528,0.573-0.969,0.573
			c-0.266,0-0.471-0.073-0.618-0.221l-0.308-0.264c-0.823-0.646-1.778-1.131-2.864-1.455c-1.088-0.322-2.146-0.484-3.173-0.484
			c-1.764,0-3.387,0.419-4.869,1.256c-1.484,0.838-2.659,1.976-3.525,3.415c-0.867,1.439-1.301,3.012-1.301,4.716v20.314
			c0,0.853-0.412,1.277-1.233,1.277h-7.051c-0.823,0-1.233-0.425-1.233-1.277V45.273c0-0.381,0.109-0.683,0.33-0.903
			s0.535-0.331,0.947-0.331h5.597c0.705,0,1.116,0.264,1.233,0.793l0.794,4.318c1.351-1.938,3.077-3.474,5.178-4.604
			c2.1-1.131,4.296-1.697,6.588-1.697c1.879,0,3.664,0.309,5.354,0.925c1.689,0.617,3.107,1.498,4.253,2.644
			C294.012,46.625,294.159,46.904,294.159,47.256z"/>
	</g>
</g>
</svg>
