<?xml version="1.0" encoding="utf-8"?>
<!-- Generator: Adobe Illustrator 16.0.0, SVG Export Plug-In . SVG Version: 6.00 Build 0)  -->
<!DOCTYPE svg PUBLIC "-//W3C//DTD SVG 1.1//EN" "http://www.w3.org/Graphics/SVG/1.1/DTD/svg11.dtd">
<svg version="1.1" id="Layer_1" xmlns="http://www.w3.org/2000/svg" xmlns:xlink="http://www.w3.org/1999/xlink" x="0px" y="0px"
	 width="300px" height="100px" viewBox="0 0 300 100" enable-background="new 0 0 300 100" xml:space="preserve">
<g>
	<g>
		<g opacity="0.8">
			<path fill="#00AEEF" d="M62.014,37.07c-0.855,0-1.725-0.171-2.559-0.533l-14.738-6.394c-3.262-1.415-4.759-5.206-3.344-8.468
				s5.207-4.758,8.468-3.344l14.738,6.394c3.262,1.415,4.759,5.206,3.344,8.468C66.87,35.62,64.501,37.07,62.014,37.07z"/>
		</g>
		<g opacity="0.8">
			<path fill="#00AEEF" d="M53.895,51.812c-0.855,0-1.725-0.171-2.559-0.533L15.755,35.843c-3.262-1.415-4.759-5.207-3.344-8.468
				c1.415-3.262,5.206-4.759,8.468-3.344l35.581,15.436c3.262,1.415,4.759,5.207,3.344,8.468
				C58.75,50.362,56.381,51.812,53.895,51.812z"/>
		</g>
		<g opacity="0.8">
			<path fill="#00AEEF" d="M45.775,66.554c-0.855,0-1.724-0.172-2.559-0.533l-20.5-8.895c-3.261-1.415-4.758-5.206-3.343-8.467
				c1.415-3.262,5.207-4.759,8.468-3.344l20.5,8.893c3.262,1.416,4.759,5.207,3.344,8.469
				C50.631,65.104,48.263,66.554,45.775,66.554z"/>
		</g>
		<g opacity="0.8">
			<path fill="#00AEEF" d="M37.656,81.295c-0.855,0-1.724-0.172-2.559-0.533l-5.419-2.352c-3.262-1.415-4.758-5.206-3.344-8.468
				c1.415-3.262,5.206-4.758,8.468-3.344l5.419,2.352c3.261,1.414,4.758,5.206,3.344,8.468
				C42.512,79.845,40.144,81.295,37.656,81.295z"/>
		</g>
	</g>
	<g>
		<path fill="#00AEEF" d="M80.668,45.124c0-0.769,0.385-1.154,1.155-1.154h4.191V33.406c0-0.684,0.328-1.14,0.984-1.369l6.971-2.737
			c0.228-0.057,0.385-0.085,0.47-0.085c0.284,0,0.506,0.1,0.663,0.299c0.156,0.2,0.235,0.47,0.235,0.813v13.642h8.853
			c0.77,0,1.155,0.385,1.155,1.154v6.543c0,0.77-0.385,1.155-1.155,1.155h-8.853v27.112c0,0.771-0.371,1.155-1.112,1.155h-7.013
			c-0.371,0-0.657-0.1-0.855-0.3c-0.2-0.199-0.299-0.484-0.299-0.855V52.822h-4.234c-0.77,0-1.155-0.386-1.155-1.155V45.124z"/>
		<path fill="#00AEEF" d="M169.633,44.183c0.171,0.171,0.257,0.385,0.257,0.642c0,0.143-0.042,0.328-0.128,0.556l-15.011,34.64
			c-0.144,0.314-0.357,0.563-0.642,0.748c-0.285,0.186-0.613,0.278-0.983,0.278h-4.576c-0.342,0-0.663-0.093-0.962-0.278
			c-0.3-0.185-0.521-0.434-0.663-0.748l-7.099-15.737l-6.586,15.737c-0.114,0.285-0.335,0.527-0.663,0.727
			c-0.328,0.2-0.663,0.3-1.005,0.3h-5.046c-0.342,0-0.677-0.1-1.005-0.3c-0.328-0.199-0.549-0.441-0.663-0.727l-14.754-34.64
			c-0.086-0.228-0.128-0.413-0.128-0.556c0-0.285,0.092-0.506,0.278-0.663c0.185-0.156,0.42-0.235,0.706-0.235h7.484
			c0.371,0,0.699,0.101,0.983,0.3c0.285,0.2,0.485,0.456,0.599,0.77l9.023,25.488l9.28-25.488c0.113-0.314,0.313-0.57,0.599-0.77
			c0.285-0.199,0.613-0.3,0.983-0.3h6.971c0.284,0,0.513,0.079,0.684,0.235c0.171,0.157,0.257,0.364,0.257,0.62
			c0,0.171-0.043,0.371-0.129,0.599l-3.806,9.109l6.458,15.738l9.536-25.275c0.284-0.684,0.741-1.026,1.368-1.026h7.741
			C169.248,43.926,169.462,44.012,169.633,44.183z"/>
		<path fill="#00AEEF" d="M177.502,31.952c-0.884-0.513-1.589-1.204-2.116-2.074c-0.528-0.869-0.792-1.817-0.792-2.844
			s0.264-1.981,0.792-2.865c0.527-0.883,1.232-1.583,2.116-2.095c0.884-0.514,1.839-0.77,2.865-0.77c1.027,0,1.981,0.256,2.865,0.77
			c0.884,0.513,1.583,1.212,2.096,2.095c0.514,0.884,0.771,1.839,0.771,2.865s-0.257,1.975-0.771,2.844
			c-0.513,0.87-1.212,1.561-2.096,2.074s-1.838,0.77-2.865,0.77C179.341,32.722,178.386,32.465,177.502,31.952z M184.666,44.226
			c0.213,0.2,0.32,0.485,0.32,0.855v34.812c0,0.371-0.107,0.655-0.32,0.854c-0.214,0.2-0.507,0.3-0.877,0.3h-6.929
			c-0.77,0-1.154-0.385-1.154-1.154V45.081c0-0.77,0.385-1.155,1.154-1.155h6.929C184.159,43.926,184.452,44.027,184.666,44.226z"/>
		<path fill="#00AEEF" d="M203.726,52.116c-0.813,0.528-1.219,1.247-1.219,2.159c0,0.599,0.178,1.105,0.535,1.519
			c0.355,0.414,1.019,0.813,1.988,1.197c0.969,0.385,2.408,0.82,4.318,1.305c2.994,0.741,5.467,1.632,7.421,2.673
			c1.952,1.041,3.449,2.373,4.49,3.998c1.04,1.626,1.561,3.65,1.561,6.073c0,3.621-1.354,6.387-4.063,8.297
			c-2.709,1.909-6.401,2.864-11.076,2.864c-2.88,0-5.674-0.448-8.382-1.347c-2.709-0.898-5.019-1.889-6.928-2.972
			c-0.571-0.314-0.855-0.713-0.855-1.198c0-0.313,0.099-0.612,0.299-0.897l2.737-4.833c0.313-0.513,0.712-0.77,1.197-0.77
			c0.284,0,0.599,0.086,0.94,0.257c4.021,2.081,7.684,3.122,10.991,3.122c2.053,0,3.606-0.229,4.661-0.685s1.582-1.212,1.582-2.267
			c0-1.026-0.542-1.86-1.625-2.502c-1.084-0.642-2.808-1.262-5.175-1.86c-3.078-0.77-5.573-1.639-7.483-2.608
			c-1.91-0.969-3.372-2.252-4.384-3.85c-1.013-1.596-1.518-3.634-1.518-6.115c0-1.938,0.526-3.742,1.582-5.41
			c1.055-1.667,2.594-3.008,4.618-4.02c2.024-1.012,4.434-1.519,7.228-1.519c2.452,0,4.897,0.371,7.335,1.112
			c2.438,0.741,4.496,1.611,6.18,2.608c0.626,0.342,0.94,0.77,0.94,1.283c0,0.285-0.101,0.584-0.3,0.898l-2.779,4.661
			c-0.342,0.571-0.756,0.855-1.24,0.855c-0.086,0-0.243-0.028-0.471-0.085c-1.397-0.741-2.966-1.383-4.704-1.925
			c-1.739-0.541-3.393-0.813-4.961-0.813C205.686,51.324,204.538,51.589,203.726,52.116z"/>
		<path fill="#00AEEF" d="M227.41,45.124c0-0.769,0.385-1.154,1.154-1.154h4.191V33.406c0-0.684,0.327-1.14,0.983-1.369l6.971-2.737
			c0.228-0.057,0.385-0.085,0.471-0.085c0.284,0,0.505,0.1,0.663,0.299c0.156,0.2,0.234,0.47,0.234,0.813v13.642h8.853
			c0.77,0,1.154,0.385,1.154,1.154v6.543c0,0.77-0.385,1.155-1.154,1.155h-8.853v27.112c0,0.771-0.371,1.155-1.111,1.155h-7.014
			c-0.371,0-0.656-0.1-0.855-0.3c-0.2-0.199-0.299-0.484-0.299-0.855V52.822h-4.234c-0.77,0-1.154-0.386-1.154-1.155V45.124z"/>
		<path fill="#00AEEF" d="M288.122,47.048c0,0.257-0.085,0.514-0.256,0.77l-3.208,4.961c-0.199,0.37-0.513,0.556-0.94,0.556
			c-0.257,0-0.456-0.071-0.599-0.214l-0.3-0.256c-0.798-0.628-1.726-1.098-2.779-1.412c-1.056-0.313-2.082-0.471-3.079-0.471
			c-1.711,0-3.286,0.406-4.726,1.219c-1.44,0.813-2.581,1.918-3.421,3.314c-0.842,1.397-1.263,2.923-1.263,4.576v19.715
			c0,0.827-0.399,1.24-1.197,1.24h-6.842c-0.799,0-1.197-0.413-1.197-1.24V45.124c0-0.37,0.106-0.663,0.32-0.876
			c0.214-0.214,0.52-0.321,0.919-0.321h5.432c0.685,0,1.083,0.257,1.197,0.77l0.771,4.191c1.311-1.881,2.985-3.371,5.024-4.469
			c2.038-1.097,4.17-1.646,6.394-1.646c1.824,0,3.556,0.299,5.196,0.898c1.639,0.599,3.015,1.454,4.127,2.566
			C287.979,46.436,288.122,46.706,288.122,47.048z"/>
	</g>
</g>
</svg>
