<?xml version="1.0" encoding="utf-8"?>
<!-- Generator: Adobe Illustrator 16.0.0, SVG Export Plug-In . SVG Version: 6.00 Build 0)  -->
<!DOCTYPE svg PUBLIC "-//W3C//DTD SVG 1.1//EN" "http://www.w3.org/Graphics/SVG/1.1/DTD/svg11.dtd">
<svg version="1.1" id="Layer_1" xmlns="http://www.w3.org/2000/svg" xmlns:xlink="http://www.w3.org/1999/xlink" x="0px" y="0px"
	 width="300px" height="100px" viewBox="0 0 300 100" enable-background="new 0 0 300 100" xml:space="preserve">
<g>
	<g>
		<path fill="#FFFFFF" d="M61.171,36.975c-0.882,0-1.777-0.176-2.637-0.549l-15.186-6.588c-3.361-1.458-4.904-5.365-3.446-8.726
			c1.458-3.361,5.366-4.903,8.726-3.446l15.187,6.588c3.361,1.458,4.903,5.365,3.445,8.726
			C66.174,35.48,63.733,36.975,61.171,36.975z"/>
	</g>
	<g>
		<path fill="#FFFFFF" d="M52.804,52.165c-0.881,0-1.777-0.177-2.637-0.55L13.504,35.71c-3.361-1.458-4.904-5.365-3.445-8.726
			c1.458-3.361,5.364-4.904,8.725-3.446l36.664,15.906c3.361,1.458,4.903,5.365,3.445,8.726
			C57.808,50.671,55.367,52.165,52.804,52.165z"/>
	</g>
	<g>
		<path fill="#FFFFFF" d="M44.438,67.355c-0.881,0-1.777-0.178-2.637-0.551l-21.124-9.164c-3.361-1.459-4.904-5.365-3.445-8.726
			c1.458-3.361,5.365-4.903,8.725-3.445l21.124,9.165c3.361,1.458,4.903,5.364,3.445,8.727
			C49.442,65.859,47.001,67.355,44.438,67.355z"/>
	</g>
	<g>
		<path fill="#FFFFFF" d="M36.072,82.545c-0.881,0-1.777-0.177-2.637-0.55l-5.584-2.422c-3.361-1.458-4.903-5.365-3.445-8.726
			c1.458-3.361,5.364-4.904,8.726-3.447l5.584,2.424c3.36,1.458,4.903,5.365,3.445,8.726C41.076,81.051,38.635,82.545,36.072,82.545
			z"/>
	</g>
	<path fill="#FFFFFF" d="M80.393,45.273c0-0.792,0.396-1.189,1.189-1.189h4.319V33.199c0-0.705,0.337-1.175,1.013-1.41l7.183-2.82
		c0.235-0.059,0.396-0.088,0.485-0.088c0.293,0,0.521,0.104,0.683,0.309c0.161,0.206,0.242,0.484,0.242,0.837v14.058h9.122
		c0.793,0,1.19,0.396,1.19,1.189v6.744c0,0.793-0.396,1.188-1.19,1.188h-9.122v27.938c0,0.793-0.382,1.189-1.146,1.189h-7.227
		c-0.382,0-0.676-0.104-0.881-0.309c-0.206-0.207-0.309-0.5-0.309-0.883V53.205h-4.363c-0.793,0-1.189-0.396-1.189-1.189
		L80.393,45.273L80.393,45.273z"/>
	<path fill="#FFFFFF" d="M172.064,44.304c0.176,0.177,0.265,0.396,0.265,0.662c0,0.147-0.044,0.338-0.132,0.573l-15.469,35.693
		c-0.146,0.324-0.367,0.58-0.66,0.771c-0.295,0.19-0.633,0.286-1.014,0.286h-4.716c-0.353,0-0.683-0.096-0.992-0.286
		c-0.309-0.19-0.536-0.446-0.683-0.771l-7.315-16.217l-6.786,16.217c-0.118,0.293-0.346,0.543-0.683,0.748
		c-0.338,0.207-0.683,0.31-1.036,0.31h-5.2c-0.353,0-0.698-0.103-1.036-0.31c-0.338-0.205-0.566-0.455-0.683-0.748l-15.203-35.693
		c-0.088-0.235-0.132-0.426-0.132-0.573c0-0.294,0.095-0.521,0.286-0.684c0.191-0.161,0.434-0.242,0.727-0.242h7.712
		c0.382,0,0.72,0.103,1.013,0.309s0.5,0.47,0.617,0.793l9.298,26.264l9.563-26.264c0.117-0.323,0.322-0.587,0.617-0.793
		c0.293-0.206,0.631-0.309,1.014-0.309h7.183c0.293,0,0.529,0.081,0.705,0.242c0.176,0.162,0.265,0.375,0.265,0.639
		c0,0.176-0.044,0.382-0.132,0.617l-3.922,9.386l6.653,16.217l9.828-26.042c0.293-0.705,0.764-1.058,1.409-1.058h7.976
		C171.668,44.04,171.889,44.128,172.064,44.304z"/>
	<path fill="#FFFFFF" d="M180.173,31.701c-0.909-0.528-1.638-1.24-2.181-2.137c-0.544-0.896-0.816-1.873-0.816-2.931
		c0-1.058,0.272-2.042,0.816-2.953c0.543-0.91,1.271-1.63,2.181-2.159c0.911-0.529,1.896-0.793,2.953-0.793s2.041,0.264,2.952,0.793
		c0.91,0.529,1.63,1.25,2.158,2.159c0.529,0.911,0.793,1.895,0.793,2.953c0,1.058-0.264,2.035-0.793,2.931
		c-0.528,0.896-1.248,1.608-2.158,2.137c-0.911,0.529-1.895,0.793-2.952,0.793C182.066,32.494,181.084,32.23,180.173,31.701z
		 M187.555,44.348c0.221,0.206,0.33,0.5,0.33,0.881V81.1c0,0.383-0.109,0.676-0.33,0.881c-0.221,0.207-0.521,0.31-0.904,0.31h-7.139
		c-0.793,0-1.188-0.396-1.188-1.188V45.229c0-0.793,0.396-1.189,1.188-1.189h7.139C187.032,44.04,187.334,44.143,187.555,44.348z"/>
	<path fill="#FFFFFF" d="M207.193,52.479c-0.836,0.545-1.256,1.285-1.256,2.227c0,0.615,0.184,1.139,0.551,1.564
		s1.051,0.836,2.051,1.232c0.998,0.396,2.48,0.846,4.449,1.344c3.086,0.766,5.634,1.684,7.646,2.756
		c2.012,1.071,3.555,2.444,4.627,4.119c1.072,1.676,1.608,3.762,1.608,6.258c0,3.73-1.396,6.58-4.187,8.549
		s-6.597,2.953-11.414,2.953c-2.968,0-5.847-0.463-8.637-1.39c-2.792-0.926-5.172-1.944-7.139-3.063
		c-0.59-0.322-0.883-0.732-0.883-1.232c0-0.322,0.104-0.632,0.31-0.926l2.82-4.979c0.323-0.529,0.733-0.793,1.233-0.793
		c0.293,0,0.616,0.088,0.969,0.264c4.144,2.146,7.918,3.218,11.326,3.218c2.114,0,3.715-0.235,4.804-0.705
		c1.086-0.47,1.63-1.248,1.63-2.336c0-1.058-0.559-1.917-1.676-2.577c-1.115-0.662-2.894-1.301-5.332-1.918
		c-3.172-0.793-5.742-1.688-7.711-2.688c-1.969-0.998-3.475-2.32-4.516-3.967c-1.045-1.646-1.566-3.746-1.566-6.302
		c0-1.998,0.545-3.856,1.632-5.575c1.087-1.718,2.673-3.099,4.76-4.142c2.085-1.042,4.567-1.565,7.447-1.565
		c2.526,0,5.045,0.382,7.557,1.146c2.513,0.764,4.634,1.66,6.368,2.688c0.646,0.353,0.971,0.793,0.971,1.323
		c0,0.293-0.104,0.602-0.31,0.925l-2.864,4.802c-0.354,0.588-0.779,0.881-1.277,0.881c-0.088,0-0.25-0.028-0.484-0.088
		c-1.439-0.764-3.057-1.424-4.848-1.982c-1.793-0.559-3.496-0.837-5.111-0.837C209.214,51.663,208.031,51.936,207.193,52.479z"/>
	<path fill="#FFFFFF" d="M231.6,45.273c0-0.792,0.396-1.189,1.189-1.189h4.318V33.199c0-0.705,0.338-1.175,1.014-1.41l7.184-2.82
		c0.234-0.059,0.396-0.088,0.484-0.088c0.293,0,0.521,0.104,0.684,0.309c0.16,0.206,0.241,0.484,0.241,0.837v14.058h9.122
		c0.793,0,1.189,0.396,1.189,1.189v6.744c0,0.793-0.396,1.188-1.189,1.188h-9.122v27.938c0,0.793-0.382,1.189-1.146,1.189h-7.228
		c-0.382,0-0.677-0.104-0.882-0.309c-0.206-0.207-0.309-0.5-0.309-0.883V53.205h-4.362c-0.793,0-1.188-0.396-1.188-1.189V45.273
		L231.6,45.273z"/>
	<path fill="#FFFFFF" d="M294.159,47.256c0,0.265-0.089,0.529-0.265,0.793l-3.306,5.111c-0.206,0.382-0.528,0.572-0.969,0.572
		c-0.267,0-0.472-0.072-0.618-0.221l-0.309-0.264c-0.822-0.646-1.777-1.131-2.863-1.455c-1.088-0.322-2.146-0.484-3.174-0.484
		c-1.764,0-3.387,0.42-4.868,1.256c-1.484,0.838-2.659,1.977-3.524,3.416c-0.867,1.438-1.302,3.012-1.302,4.715V81.01
		c0,0.854-0.412,1.277-1.233,1.277h-7.051c-0.822,0-1.232-0.426-1.232-1.277V45.273c0-0.381,0.109-0.683,0.33-0.903
		c0.221-0.22,0.535-0.331,0.947-0.331h5.596c0.705,0,1.117,0.264,1.233,0.793l0.794,4.318c1.352-1.938,3.077-3.474,5.178-4.604
		c2.101-1.131,4.297-1.697,6.588-1.697c1.88,0,3.664,0.309,5.354,0.925c1.688,0.617,3.107,1.498,4.253,2.644
		C294.012,46.625,294.159,46.904,294.159,47.256z"/>
</g>
</svg>
