<?xml version="1.0" encoding="utf-8"?>
<!-- Generator: Adobe Illustrator 16.0.0, SVG Export Plug-In . SVG Version: 6.00 Build 0)  -->
<!DOCTYPE svg PUBLIC "-//W3C//DTD SVG 1.1//EN" "http://www.w3.org/Graphics/SVG/1.1/DTD/svg11.dtd">
<svg version="1.1" id="Layer_1" xmlns="http://www.w3.org/2000/svg" xmlns:xlink="http://www.w3.org/1999/xlink" x="0px" y="0px"
	 width="48px" height="48px" viewBox="0 0 48 48" enable-background="new 0 0 48 48" xml:space="preserve">
<g>
	<g opacity="0.8">
		<path fill="#00AEEF" d="M40.234,14.729c-0.636,0-1.281-0.127-1.901-0.396L27.381,9.582c-2.424-1.051-3.536-3.869-2.484-6.292
			s3.869-3.536,6.292-2.485l10.952,4.751c2.423,1.051,3.536,3.869,2.484,6.292C43.843,13.652,42.082,14.729,40.234,14.729z"/>
	</g>
	<g opacity="0.8">
		<path fill="#00AEEF" d="M34.2,25.683c-0.636,0-1.281-0.127-1.901-0.396L5.859,13.817c-2.424-1.052-3.536-3.869-2.484-6.292
			C4.426,5.101,7.243,3.988,9.667,5.04l26.439,11.47c2.424,1.052,3.536,3.869,2.484,6.292C37.809,24.606,36.049,25.683,34.2,25.683z
			"/>
	</g>
	<g opacity="0.8">
		<path fill="#00AEEF" d="M28.168,36.638c-0.636,0-1.282-0.128-1.902-0.396l-15.233-6.608c-2.424-1.052-3.536-3.869-2.484-6.293
			c1.051-2.424,3.869-3.536,6.292-2.484l15.233,6.608c2.424,1.052,3.536,3.869,2.485,6.292
			C31.776,35.561,30.016,36.638,28.168,36.638z"/>
	</g>
	<g opacity="0.8">
		<path fill="#00AEEF" d="M22.134,47.592c-0.636,0-1.281-0.128-1.901-0.396l-4.026-1.747c-2.424-1.052-3.536-3.869-2.485-6.292
			c1.051-2.424,3.869-3.536,6.292-2.485l4.026,1.747c2.424,1.052,3.536,3.869,2.485,6.293
			C25.742,46.515,23.982,47.592,22.134,47.592z"/>
	</g>
</g>
</svg>
